<svg width="244" height="48" viewBox="0 0 244 48" fill="none" xmlns="http://www.w3.org/2000/svg">
<path d="M52.9123 35.985V12.0742H73.4049V16.1505H56.9161V31.9096H73.4314V35.985H52.9123Z" fill="#0E75AF"/>
<path d="M72.5199 22.3125H59.8159V25.7469H72.5199V22.3125Z" fill="#0E75AF"/>
<path d="M172.609 35.985V12.0742H193.1V16.1505H176.613V31.9096H193.128V35.985H172.609Z" fill="#0E75AF"/>
<path d="M192.216 22.3125H179.512V25.7469H192.216V22.3125Z" fill="#0E75AF"/>
<path d="M101.333 35.9848L97.8968 29.8536H87.0533L88.9439 26.5483H95.9697L90.86 17.816L80.4581 35.982H75.8868L89.0634 13.3876C89.2682 13.0117 89.548 12.6836 89.8846 12.4242C90.2149 12.1842 90.6131 12.0602 91.0188 12.0712C91.4202 12.0584 91.8143 12.1827 92.1384 12.4242C92.4662 12.6881 92.7394 13.0155 92.9422 13.3876L106.151 35.982L101.333 35.9848Z" fill="#0E75AF"/>
<path d="M128.285 35.985L124.094 28.9248H115.517V25.3297H125.069C126.518 25.3297 127.611 24.934 128.347 24.1425C129.083 23.351 129.451 22.1848 129.451 20.644C129.451 19.1037 129.068 17.9698 128.302 17.2421C127.536 16.5144 126.462 16.1509 125.078 16.1515H112.619V35.985H108.615V12.0742H125.07C126.373 12.0742 127.54 12.2721 128.57 12.6678C129.553 13.0337 130.447 13.6143 131.187 14.3688C131.917 15.1313 132.477 16.0451 132.829 17.0479C133.207 18.0977 133.396 19.2744 133.396 20.578C133.396 22.5258 132.987 24.1574 132.167 25.4728C131.348 26.7882 130.182 27.7348 128.668 28.3126L133.96 35.9841L128.285 35.985Z" fill="#0E75AF"/>
<path d="M166.177 35.9833L161.797 19.2618L155.303 34.4412C155.112 34.8802 154.827 35.2698 154.468 35.5811C154.122 35.8551 153.693 35.9968 153.255 35.9815C152.329 35.9815 151.646 35.4681 151.205 34.4412L144.744 19.2618L140.364 35.9833H136.419L142.314 13.7112C142.587 12.5965 143.249 12.0391 144.299 12.0391C144.72 12.0377 145.132 12.1603 145.485 12.3921C145.862 12.6377 146.154 12.9964 146.321 13.4186L153.382 29.9153L160.443 13.4186C160.821 12.4989 161.462 12.0391 162.367 12.0391C163.332 12.0391 163.973 12.5965 164.29 13.7112L170.153 35.9833H166.177Z" fill="#0E75AF"/>
<path d="M199.405 18.6225V35.985H195.59V14.5137C195.59 13.7649 195.772 13.171 196.137 12.7319C196.502 12.2928 197.002 12.0736 197.635 12.0742C197.929 12.0743 198.22 12.1403 198.486 12.2674C198.804 12.4289 199.092 12.6458 199.337 12.9084L215.508 29.2453V12.0742H219.322V33.5465C219.322 34.3157 219.14 34.9145 218.775 35.3431C218.598 35.5523 218.377 35.7185 218.129 35.8296C217.881 35.9407 217.612 35.9938 217.341 35.985C216.689 35.985 216.081 35.6964 215.516 35.1192L199.405 18.6225Z" fill="#0E75AF"/>
<path d="M230.487 35.985V16.7293H221.787V12.0742H243.191V16.7293H234.491V35.985H230.487Z" fill="#0E75AF"/>
<path d="M4.54079 20.2325C3.89295 14.2304 4.12471 11.7203 4.12471 11.7203C6.38884 7.86009 9.66734 4.72074 13.5904 2.65633L13.5986 2.65076C16.5761 1.08895 19.8476 0.194422 23.193 0.0273438C10.5812 8.08246 2.49508 21.6362 11.5849 34.8434C11.5849 34.8434 5.51346 29.2732 4.54079 20.2325Z" fill="#19ACDC"/>
<path d="M3.95408 35.9856C3.94222 35.9623 3.92762 35.941 3.91576 35.9196C3.91056 35.9089 3.90445 35.8986 3.89751 35.889C3.7351 35.5954 3.57451 35.2972 3.42213 34.9971C3.38746 34.9256 3.35187 34.8559 3.3172 34.7844C3.28252 34.7129 3.24329 34.6358 3.2077 34.5605C3.16208 34.4676 3.11646 34.3654 3.06901 34.2605C3.04255 34.2029 3.01609 34.1443 2.99054 34.0867C2.94583 33.9939 2.8993 33.8907 2.85824 33.7867C2.82539 33.7114 2.79163 33.6343 2.75969 33.5582C2.71589 33.4578 2.67392 33.3575 2.63377 33.2553C2.59363 33.1531 2.55439 33.0612 2.51607 32.9608C2.47775 32.8605 2.44034 32.7695 2.40566 32.6729C2.37099 32.5762 2.3281 32.4694 2.29161 32.3654C2.25511 32.2613 2.21405 32.1545 2.17755 32.0467C1.30718 29.5805 0.844682 26.9844 0.808882 24.3641C0.808882 24.339 0.808882 24.314 0.808882 24.2889C0.808882 24.196 0.808882 24.0975 0.808882 24.0009C0.80286 20.0571 1.75581 16.173 3.58272 12.6953C3.38745 35.0557 17.5906 41.2213 26.8939 40.9249C14.5722 44.2962 3.95408 35.9856 3.95408 35.9856Z" fill="url(#paint0_linear_190_3910)"/>
<path d="M25.0863 47.9947H24.9951L24.6922 47.9993C24.59 47.9993 24.4878 47.9993 24.3865 47.9993C24.2232 47.9993 24.0598 47.9993 23.8983 47.9937C23.756 47.9937 23.6155 47.9873 23.475 47.9817C23.4655 47.9826 23.4561 47.9826 23.4467 47.9817C23.401 47.9817 23.3554 47.9817 23.3116 47.9761C23.2906 47.9761 23.2697 47.9761 23.2487 47.9761C23.1218 47.9761 22.9977 47.964 22.8727 47.9566L22.5078 47.9297H22.4776H22.4247C22.3335 47.9222 22.2422 47.9129 22.151 47.9064C18.5971 47.5612 15.1666 46.3989 12.1181 44.5073C9.06963 42.6157 6.48279 40.044 4.55264 36.9864C7.53999 39.1026 16.2612 43.9992 26.9423 41.3228C37.4545 38.6864 39.9656 30.3693 40.0404 30.1055C38.5303 38.4161 31.3412 44.2797 25.0863 47.9947Z" fill="#19ACDC"/>
<path d="M24.6995 0C33.9088 0.121695 41.8462 5.62028 45.6191 13.5537H37.5595C37.5595 13.5537 33.5019 7.40576 25.3847 7.20789C13.4572 6.91991 9.25997 17.2278 9.07748 17.7034C12.9234 5.92034 22.3892 1.09712 24.6995 0Z" fill="url(#paint1_linear_190_3910)"/>
<path d="M47.9632 24.0033C47.9632 35.4519 40.0934 45.0259 29.5583 47.4273L29.5391 47.4329L29.4916 47.4431L29.3402 47.4756C28.181 47.7274 27.0049 47.8904 25.8218 47.9633H25.7935H25.7862H25.7588H25.7287C40.0423 40.4265 41.0332 27.9059 41.0332 27.9059H22.12V21.3789H47.8227C47.823 21.3832 47.823 21.3876 47.8227 21.3919C47.9156 22.2592 47.9625 23.1309 47.9632 24.0033Z" fill="url(#paint2_linear_190_3910)"/>
<defs>
<linearGradient id="paint0_linear_190_3910" x1="0.809794" y1="27.2124" x2="26.8948" y2="27.2124" gradientUnits="userSpaceOnUse">
<stop stop-color="#0C619B"/>
<stop offset="1" stop-color="#13A0D2"/>
</linearGradient>
<linearGradient id="paint1_linear_190_3910" x1="9.07566" y1="8.85124" x2="45.6191" y2="8.85124" gradientUnits="userSpaceOnUse">
<stop stop-color="#0C619B"/>
<stop offset="1" stop-color="#13A0D2"/>
</linearGradient>
<linearGradient id="paint2_linear_190_3910" x1="35.0421" y1="47.941" x2="35.0421" y2="21.561" gradientUnits="userSpaceOnUse">
<stop stop-color="#0C619B"/>
<stop offset="1" stop-color="#13A0D2"/>
</linearGradient>
</defs>
</svg>
